<svg xmlns="http://www.w3.org/2000/svg" viewBox="0 0 1200 400" width="1200" height="400" role="img" aria-label="嘴替 hero">
  <defs>
    <linearGradient id="bg" x1="0" y1="0" x2="1" y2="1">
      <stop offset="0%" stop-color="#FFF6EE"/>
      <stop offset="100%" stop-color="#FBEAF1"/>
    </linearGradient>
    <radialGradient id="glow1" cx="88%" cy="8%" r="55%">
      <stop offset="0%" stop-color="#FF2D6B" stop-opacity="0.18"/>
      <stop offset="100%" stop-color="#FF2D6B" stop-opacity="0"/>
    </radialGradient>
    <radialGradient id="glow2" cx="6%" cy="30%" r="45%">
      <stop offset="0%" stop-color="#5B2A86" stop-opacity="0.14"/>
      <stop offset="100%" stop-color="#5B2A86" stop-opacity="0"/>
    </radialGradient>
  </defs>
  <rect width="1200" height="400" fill="url(#bg)"/>
  <rect width="1200" height="400" fill="url(#glow1)"/>
  <rect width="1200" height="400" fill="url(#glow2)"/>
  <text x="80" y="150" font-family="PingFang SC, Hiragino Sans GB, system-ui, sans-serif" font-size="120" font-weight="900" letter-spacing="-4">
    <tspan fill="#181320">嘴</tspan><tspan fill="#FF2D6B">替</tspan>
  </text>
  <text x="80" y="210" font-family="PingFang SC, system-ui, sans-serif" font-size="34" font-weight="800" fill="#181320">你负责想，它负责嘴。</text>
  <text x="80" y="258" font-family="PingFang SC, system-ui, sans-serif" font-size="18" fill="#7C7689">喊一声 Jarvis → 自动看屏 → 你语音说真心话 → 神回复一键复制</text>
  <g transform="translate(820,90)">
    <rect x="0" y="0" width="320" height="220" rx="22" fill="#FFFFFF" stroke="rgba(24,19,32,0.12)"/>
    <rect x="0" y="0" width="320" height="52" rx="22" fill="#FFF7FB"/>
    <rect x="0" y="30" width="320" height="22" fill="#FFF7FB"/>
    <circle cx="28" cy="26" r="14" fill="#FF2D6B"/>
    <text x="50" y="32" font-family="system-ui" font-size="14" font-weight="700" fill="#181320">暧昧对象</text>
    <circle cx="180" cy="26" r="4" fill="#0FB97E"/>
    <rect x="20" y="76" width="150" height="32" rx="14" fill="#FFFFFF" stroke="rgba(24,19,32,0.12)"/>
    <text x="32" y="96" font-family="system-ui" font-size="13" fill="#181320">在吗 😏</text>
    <rect x="170" y="120" width="130" height="32" rx="14" fill="#F1ECF1"/>
    <text x="184" y="140" font-family="system-ui" font-size="13" fill="#9A93A4">在。</text>
    <line x1="20" y1="166" x2="300" y2="166" stroke="rgba(24,19,32,0.12)" stroke-dasharray="3 3"/>
    <rect x="20" y="178" width="280" height="28" rx="10" fill="#FFFFFF" stroke="rgba(255,45,107,0.25)"/>
    <text x="32" y="196" font-family="system-ui" font-size="11" fill="#181320">在的，正想你呢 📷</text>
    <rect x="240" y="184" width="50" height="16" rx="8" fill="#FF2D6B"/>
    <text x="248" y="195" font-family="system-ui" font-size="9" font-weight="700" fill="#FFFFFF">更撩</text>
  </g>
</svg>
